<svg width="349" height="91" viewBox="0 0 349 91" fill="none" xmlns="http://www.w3.org/2000/svg">
<path d="M3.064 90.24C2.424 90.24 1.848 90.016 1.336 89.568C0.888 89.12 0.664 88.544 0.664 87.84V24.48C0.664 23.776 0.888 23.2 1.336 22.752C1.848 22.304 2.424 22.08 3.064 22.08H13.912C14.616 22.08 15.192 22.304 15.64 22.752C16.088 23.2 16.312 23.776 16.312 24.48V27.936C19.768 23.392 24.728 21.12 31.192 21.12C37.464 21.12 42.36 23.072 45.88 26.976C49.4 30.88 51.32 36.384 51.64 43.488C51.704 44.32 51.736 45.504 51.736 47.04C51.736 48.576 51.704 49.76 51.64 50.592C51.384 57.504 49.464 62.976 45.88 67.008C42.296 70.976 37.4 72.96 31.192 72.96C24.92 72.96 20.248 70.816 17.176 66.528V87.84C17.176 88.544 16.952 89.12 16.504 89.568C16.056 90.016 15.48 90.24 14.776 90.24H3.064ZM26.008 60.096C29.016 60.096 31.16 59.2 32.44 57.408C33.784 55.616 34.552 53.152 34.744 50.016C34.872 48.736 34.936 47.744 34.936 47.04C34.936 46.336 34.872 45.344 34.744 44.064C34.552 40.928 33.784 38.464 32.44 36.672C31.16 34.88 29.016 33.984 26.008 33.984C23.064 33.984 20.888 34.912 19.48 36.768C18.136 38.56 17.368 40.896 17.176 43.776L17.08 47.328L17.176 50.976C17.304 53.6 18.104 55.776 19.576 57.504C21.048 59.232 23.192 60.096 26.008 60.096ZM63.6265 72C62.9225 72 62.3465 71.776 61.8985 71.328C61.4505 70.88 61.2265 70.304 61.2265 69.6V24.48C61.2265 23.776 61.4505 23.2 61.8985 22.752C62.3465 22.304 62.9225 22.08 63.6265 22.08H74.6665C75.3705 22.08 75.9465 22.336 76.3945 22.848C76.9065 23.296 77.1625 23.84 77.1625 24.48V28.32C80.6825 24.16 85.4185 22.08 91.3705 22.08H95.5945C96.2985 22.08 96.8745 22.304 97.3225 22.752C97.7705 23.2 97.9945 23.776 97.9945 24.48V34.368C97.9945 35.008 97.7705 35.584 97.3225 36.096C96.8745 36.544 96.2985 36.768 95.5945 36.768H86.2825C83.6585 36.768 81.6105 37.504 80.1385 38.976C78.7305 40.384 78.0265 42.4 78.0265 45.024V69.6C78.0265 70.304 77.7705 70.88 77.2585 71.328C76.8105 71.776 76.2345 72 75.5305 72H63.6265ZM127.968 72.96C120.032 72.96 113.92 71.072 109.632 67.296C105.344 63.52 103.008 58.208 102.624 51.36C102.56 50.528 102.528 49.088 102.528 47.04C102.528 44.992 102.56 43.552 102.624 42.72C103.008 35.936 105.408 30.656 109.824 26.88C114.24 23.04 120.288 21.12 127.968 21.12C135.712 21.12 141.792 23.04 146.208 26.88C150.624 30.656 153.024 35.936 153.408 42.72C153.472 43.552 153.504 44.992 153.504 47.04C153.504 49.088 153.472 50.528 153.408 51.36C153.024 58.208 150.688 63.52 146.4 67.296C142.112 71.072 135.968 72.96 127.968 72.96ZM127.968 61.248C130.784 61.248 132.864 60.416 134.208 58.752C135.552 57.024 136.32 54.4 136.512 50.88C136.576 50.24 136.608 48.96 136.608 47.04C136.608 45.12 136.576 43.84 136.512 43.2C136.32 39.744 135.52 37.152 134.112 35.424C132.768 33.696 130.72 32.832 127.968 32.832C122.656 32.832 119.84 36.288 119.52 43.2L119.424 47.04L119.52 50.88C119.648 54.4 120.384 57.024 121.728 58.752C123.136 60.416 125.216 61.248 127.968 61.248ZM170.634 72C169.994 72 169.418 71.776 168.906 71.328C168.458 70.816 168.234 70.24 168.234 69.6V34.656H160.938C160.234 34.656 159.658 34.432 159.21 33.984C158.762 33.536 158.538 32.96 158.538 32.256V24.48C158.538 23.776 158.762 23.2 159.21 22.752C159.658 22.304 160.234 22.08 160.938 22.08H168.234V19.008C168.234 12.672 170.026 8.096 173.61 5.27999C177.258 2.4 182.474 0.959999 189.258 0.959999H213.834C214.538 0.959999 215.114 1.184 215.562 1.632C216.01 2.08 216.234 2.656 216.234 3.36V11.136C216.234 11.776 216.01 12.352 215.562 12.864C215.114 13.312 214.538 13.536 213.834 13.536H190.026C187.914 13.536 186.41 14.048 185.514 15.072C184.618 16.032 184.17 17.504 184.17 19.488V22.08H213.834C214.538 22.08 215.114 22.304 215.562 22.752C216.01 23.2 216.234 23.776 216.234 24.48V69.6C216.234 70.24 216.01 70.816 215.562 71.328C215.114 71.776 214.538 72 213.834 72H202.698C202.058 72 201.482 71.776 200.97 71.328C200.522 70.816 200.298 70.24 200.298 69.6V34.656H184.17V69.6C184.17 70.24 183.946 70.816 183.498 71.328C183.05 71.776 182.474 72 181.77 72H170.634ZM229.845 72C229.205 72 228.629 71.776 228.117 71.328C227.669 70.816 227.445 70.24 227.445 69.6V6.23999C227.445 5.536 227.669 4.96 228.117 4.512C228.629 4.064 229.205 3.84 229.845 3.84H241.173C241.877 3.84 242.453 4.064 242.901 4.512C243.349 4.96 243.573 5.536 243.573 6.23999V69.6C243.573 70.304 243.349 70.88 242.901 71.328C242.453 71.776 241.877 72 241.173 72H229.845ZM277.954 72.96C270.274 72.96 264.226 70.88 259.81 66.72C255.394 62.56 253.09 56.512 252.898 48.576V45.216C253.154 37.664 255.49 31.776 259.906 27.552C264.386 23.264 270.37 21.12 277.858 21.12C283.298 21.12 287.874 22.24 291.586 24.48C295.362 26.656 298.178 29.664 300.034 33.504C301.954 37.344 302.914 41.76 302.914 46.752V49.056C302.914 49.696 302.69 50.272 302.242 50.784C301.794 51.232 301.218 51.456 300.514 51.456H269.794V52.128C269.922 55.136 270.658 57.568 272.002 59.424C273.346 61.28 275.298 62.208 277.858 62.208C279.458 62.208 280.77 61.888 281.794 61.248C282.818 60.544 283.746 59.712 284.578 58.752C285.154 58.048 285.602 57.632 285.922 57.504C286.306 57.312 286.882 57.216 287.65 57.216H299.554C300.13 57.216 300.61 57.408 300.994 57.792C301.442 58.112 301.666 58.56 301.666 59.136C301.666 60.8 300.706 62.72 298.786 64.896C296.93 67.072 294.21 68.96 290.626 70.56C287.042 72.16 282.818 72.96 277.954 72.96ZM286.018 41.952V41.76C286.018 38.624 285.282 36.16 283.81 34.368C282.402 32.512 280.418 31.584 277.858 31.584C275.362 31.584 273.378 32.512 271.906 34.368C270.498 36.16 269.794 38.624 269.794 41.76V41.952H286.018ZM314.314 72C313.61 72 313.034 71.776 312.586 71.328C312.138 70.88 311.914 70.304 311.914 69.6V24.48C311.914 23.776 312.138 23.2 312.586 22.752C313.034 22.304 313.61 22.08 314.314 22.08H325.354C326.058 22.08 326.634 22.336 327.082 22.848C327.594 23.296 327.85 23.84 327.85 24.48V28.32C331.37 24.16 336.106 22.08 342.058 22.08H346.282C346.986 22.08 347.562 22.304 348.01 22.752C348.458 23.2 348.682 23.776 348.682 24.48V34.368C348.682 35.008 348.458 35.584 348.01 36.096C347.562 36.544 346.986 36.768 346.282 36.768H336.97C334.346 36.768 332.298 37.504 330.826 38.976C329.418 40.384 328.714 42.4 328.714 45.024V69.6C328.714 70.304 328.458 70.88 327.946 71.328C327.498 71.776 326.922 72 326.218 72H314.314Z" fill="url(#paint0_linear)"/>
<defs>
<linearGradient id="paint0_linear" x1="100.051" y1="-18" x2="337.701" y2="91.378" gradientUnits="userSpaceOnUse">
<stop offset="0.09375" stop-color="#6A8CAC"/>
<stop offset="1" stop-color="#5200FF" stop-opacity="0.79"/>
</linearGradient>
</defs>
</svg>
